<svg width="130" height="49" viewBox="0 0 130 49" fill="none" xmlns="http://www.w3.org/2000/svg">
<g clip-path="url(#clip0_223_1284)">
<path fill-rule="evenodd" clip-rule="evenodd" d="M122.77 16.4052L125.765 17.1898L129.653 3.24536L117.313 0L113.426 13.9801L116.386 14.7647L122.77 16.4052Z" fill="#C8C8C8"/>
<path fill-rule="evenodd" clip-rule="evenodd" d="M116.529 17.7246L112 22.9671L113.926 37.3394L122.628 25.7489L121.237 18.9372L116.529 17.7246ZM118.847 26.0342C118.562 27.0684 117.528 27.6747 116.494 27.425C115.459 27.1754 114.853 26.1055 115.103 25.0712C115.352 24.037 116.422 23.4307 117.456 23.6804C118.491 23.93 119.097 24.9999 118.847 26.0342Z" fill="#C8C8C8"/>
<path d="M1 47.8812C10.1667 47.7145 31.6 39.2812 32 28.8812C32.5 15.8812 13.5 14.3812 22 28.8812C30.5 43.3812 29.5 47.4997 34.5 47.4997C41 47.4997 38 37.4998 43 37.9998C47.2644 38.4262 48.944 46.8824 54.5 47.4997C59 47.9997 55.64 37.1397 64.5 45.9998C67 48.4998 69.5 37.7183 71.5 41.4998C72.8631 44.077 75.5 52.7812 111.5 39.7812" stroke="#AAAAAA"/>
</g>
<defs>
<clipPath id="clip0_223_1284">
<rect width="130" height="49" fill="white"/>
</clipPath>
</defs>
</svg>
